<?xml version="1.0" encoding="UTF-8" standalone="no"?><svg xmlns="http://www.w3.org/2000/svg" xmlns:xlink="http://www.w3.org/1999/xlink" contentStyleType="text/css" height="808.3333px" preserveAspectRatio="none" style="width:1570px;height:808px;" version="1.1" viewBox="0 0 1570 808" width="1570.8333px" zoomAndPan="magnify"><defs><linearGradient id="g10nl80l89rbz90" x1="50%" x2="50%" y1="0%" y2="100%"><stop offset="0%" stop-color="#D3F198"/><stop offset="100%" stop-color="#B5E853"/></linearGradient><linearGradient id="g10nl80l89rbz91" x1="50%" x2="50%" y1="0%" y2="100%"><stop offset="0%" stop-color="#BB91B2"/><stop offset="100%" stop-color="#885E7F"/></linearGradient></defs><g><rect fill="#557F91" height="91.6016" style="stroke:#6A9FB5;stroke-width:1.0416666666666667;" width="10.4167" x="773.4375" y="271.6797"/><rect fill="#557F91" height="91.6016" style="stroke:#6A9FB5;stroke-width:1.0416666666666667;" width="10.4167" x="773.4375" y="550.651"/><rect fill="#557F91" height="91.6016" style="stroke:#6A9FB5;stroke-width:1.0416666666666667;" width="10.4167" x="1232.2917" y="317.4805"/><rect fill="#151515" height="72.8516" rx="20.8333" ry="20.8333" style="stroke:#B5E853;stroke-width:1.0416666666666667;" width="491.1458" x="20.8333" y="122.8516"/><rect fill="#151515" height="210.2539" rx="20.8333" ry="20.8333" style="stroke:#B5E853;stroke-width:1.0416666666666667;" width="977.0833" x="388.5417" y="210.2865"/><rect fill="#151515" height="164.4531" rx="20.8333" ry="20.8333" style="stroke:#B5E853;stroke-width:1.0416666666666667;" width="736.4583" x="445.3125" y="489.2578"/><rect fill="#151515" height="72.8516" rx="20.8333" ry="20.8333" style="stroke:#B5E853;stroke-width:1.0416666666666667;" width="546.875" x="1001.0417" y="668.2943"/><line style="stroke:#6A9FB5;stroke-width:1.0416666666666667;stroke-dasharray:5.0,5.0;" x1="95.8333" x2="95.8333" y1="51.0091" y2="758.8542"/><line style="stroke:#6A9FB5;stroke-width:1.0416666666666667;stroke-dasharray:5.0,5.0;" x1="364.0625" x2="364.0625" y1="51.0091" y2="758.8542"/><line style="stroke:#6A9FB5;stroke-width:1.0416666666666667;stroke-dasharray:5.0,5.0;" x1="536.9792" x2="536.9792" y1="51.0091" y2="758.8542"/><line style="stroke:#6A9FB5;stroke-width:1.0416666666666667;stroke-dasharray:5.0,5.0;" x1="778.6458" x2="778.6458" y1="51.0091" y2="758.8542"/><line style="stroke:#6A9FB5;stroke-width:1.0416666666666667;stroke-dasharray:5.0,5.0;" x1="1083.3333" x2="1083.3333" y1="51.0091" y2="758.8542"/><line style="stroke:#6A9FB5;stroke-width:1.0416666666666667;stroke-dasharray:5.0,5.0;" x1="1237.5" x2="1237.5" y1="51.0091" y2="758.8542"/><line style="stroke:#6A9FB5;stroke-width:1.0416666666666667;stroke-dasharray:5.0,5.0;" x1="1400" x2="1400" y1="51.0091" y2="758.8542"/><rect fill="url(#g10nl80l89rbz90)" height="39.5508" rx="20.8333" ry="20.8333" style="stroke:#D3F198;stroke-width:2.0833333333333335;" width="46.875" x="72.9167" y="10.4167"/><text fill="#151515" font-family="&quot;Verdana&quot;" font-size="12.5" lengthAdjust="spacing" textLength="21.875" x="85.4167" y="34.5194">org</text><rect fill="url(#g10nl80l89rbz90)" height="39.5508" rx="20.8333" ry="20.8333" style="stroke:#D3F198;stroke-width:2.0833333333333335;" width="46.875" x="72.9167" y="757.8125"/><text fill="#151515" font-family="&quot;Verdana&quot;" font-size="12.5" lengthAdjust="spacing" textLength="21.875" x="85.4167" y="781.9153">org</text><rect fill="url(#g10nl80l89rbz90)" height="39.5508" rx="20.8333" ry="20.8333" style="stroke:#D3F198;stroke-width:2.0833333333333335;" width="79.1667" x="324.4792" y="10.4167"/><text fill="#151515" font-family="&quot;Verdana&quot;" font-size="12.5" lengthAdjust="spacing" textLength="54.1667" x="336.9792" y="34.5194">oz_inbox</text><rect fill="url(#g10nl80l89rbz90)" height="39.5508" rx="20.8333" ry="20.8333" style="stroke:#D3F198;stroke-width:2.0833333333333335;" width="79.1667" x="324.4792" y="757.8125"/><text fill="#151515" font-family="&quot;Verdana&quot;" font-size="12.5" lengthAdjust="spacing" textLength="54.1667" x="336.9792" y="781.9153">oz_inbox</text><rect fill="url(#g10nl80l89rbz90)" height="39.5508" rx="20.8333" ry="20.8333" style="stroke:#D3F198;stroke-width:2.0833333333333335;" width="79.1667" x="497.3958" y="10.4167"/><text fill="#151515" font-family="&quot;Verdana&quot;" font-size="12.5" lengthAdjust="spacing" textLength="54.1667" x="509.8958" y="34.5194">Dropbox</text><rect fill="url(#g10nl80l89rbz90)" height="39.5508" rx="20.8333" ry="20.8333" style="stroke:#D3F198;stroke-width:2.0833333333333335;" width="79.1667" x="497.3958" y="757.8125"/><text fill="#151515" font-family="&quot;Verdana&quot;" font-size="12.5" lengthAdjust="spacing" textLength="54.1667" x="509.8958" y="781.9153">Dropbox</text><rect fill="url(#g10nl80l89rbz90)" height="39.5508" rx="20.8333" ry="20.8333" style="stroke:#D3F198;stroke-width:2.0833333333333335;" width="50" x="753.6458" y="10.4167"/><text fill="#151515" font-family="&quot;Verdana&quot;" font-size="12.5" lengthAdjust="spacing" textLength="25" x="766.1458" y="34.5194">tmp</text><rect fill="url(#g10nl80l89rbz90)" height="39.5508" rx="20.8333" ry="20.8333" style="stroke:#D3F198;stroke-width:2.0833333333333335;" width="50" x="753.6458" y="757.8125"/><text fill="#151515" font-family="&quot;Verdana&quot;" font-size="12.5" lengthAdjust="spacing" textLength="25" x="766.1458" y="781.9153">tmp</text><rect fill="url(#g10nl80l89rbz90)" height="39.5508" rx="20.8333" ry="20.8333" style="stroke:#D3F198;stroke-width:2.0833333333333335;" width="61.4583" x="1053.125" y="10.4167"/><text fill="#151515" font-family="&quot;Verdana&quot;" font-size="12.5" lengthAdjust="spacing" textLength="36.4583" x="1065.625" y="34.5194">orgzly</text><rect fill="url(#g10nl80l89rbz90)" height="39.5508" rx="20.8333" ry="20.8333" style="stroke:#D3F198;stroke-width:2.0833333333333335;" width="61.4583" x="1053.125" y="757.8125"/><text fill="#151515" font-family="&quot;Verdana&quot;" font-size="12.5" lengthAdjust="spacing" textLength="36.4583" x="1065.625" y="781.9153">orgzly</text><rect fill="url(#g10nl80l89rbz90)" height="39.5508" rx="20.8333" ry="20.8333" style="stroke:#D3F198;stroke-width:2.0833333333333335;" width="58.3333" x="1208.3333" y="10.4167"/><text fill="#151515" font-family="&quot;Verdana&quot;" font-size="12.5" lengthAdjust="spacing" textLength="33.3333" x="1220.8333" y="34.5194">tmp2</text><rect fill="url(#g10nl80l89rbz90)" height="39.5508" rx="20.8333" ry="20.8333" style="stroke:#D3F198;stroke-width:2.0833333333333335;" width="58.3333" x="1208.3333" y="757.8125"/><text fill="#151515" font-family="&quot;Verdana&quot;" font-size="12.5" lengthAdjust="spacing" textLength="33.3333" x="1220.8333" y="781.9153">tmp2</text><rect fill="url(#g10nl80l89rbz90)" height="39.5508" rx="20.8333" ry="20.8333" style="stroke:#D3F198;stroke-width:2.0833333333333335;" width="79.1667" x="1360.4167" y="10.4167"/><text fill="#151515" font-family="&quot;Verdana&quot;" font-size="12.5" lengthAdjust="spacing" textLength="54.1667" x="1372.9167" y="34.5194">or_inbox</text><rect fill="url(#g10nl80l89rbz90)" height="39.5508" rx="20.8333" ry="20.8333" style="stroke:#D3F198;stroke-width:2.0833333333333335;" width="79.1667" x="1360.4167" y="757.8125"/><text fill="#151515" font-family="&quot;Verdana&quot;" font-size="12.5" lengthAdjust="spacing" textLength="54.1667" x="1372.9167" y="781.9153">or_inbox</text><rect fill="#557F91" height="91.6016" style="stroke:#6A9FB5;stroke-width:1.0416666666666667;" width="10.4167" x="773.4375" y="271.6797"/><rect fill="#557F91" height="91.6016" style="stroke:#6A9FB5;stroke-width:1.0416666666666667;" width="10.4167" x="773.4375" y="550.651"/><rect fill="#557F91" height="91.6016" style="stroke:#6A9FB5;stroke-width:1.0416666666666667;" width="10.4167" x="1232.2917" y="317.4805"/><rect fill="#EAEAEA" height="3.125" rx="20.8333" ry="20.8333" style="stroke:#EAEAEA;stroke-width:1.0416666666666667;" width="1547.9167" x="10.4167" y="87.4512"/><line style="stroke:#EAEAEA;stroke-width:1.0416666666666667;" x1="10.4167" x2="1558.3333" y1="87.4512" y2="87.4512"/><line style="stroke:#EAEAEA;stroke-width:1.0416666666666667;" x1="10.4167" x2="1558.3333" y1="90.5762" y2="90.5762"/><rect fill="#EAEAEA" height="33.3008" rx="20.8333" ry="20.8333" style="stroke:#EAEAEA;stroke-width:2.0833333333333335;" width="47.9167" x="760.4167" y="71.8424"/><text fill="#151515" font-family="&quot;Verdana&quot;" font-size="12.5" font-weight="bold" lengthAdjust="spacing" textLength="18.75" x="771.875" y="92.8202">up</text><path d="M41.6667,122.8516 L114.5833,122.8516 L114.5833,139.4857 L104.1667,149.9023 L20.8333,149.9023 L20.8333,143.6849 A20.8333,20.8333 0 0 1 41.6667,122.8516 " fill="#151515" style="stroke:#EAEAEA;stroke-width:1.0416666666666667;"/><rect fill="none" height="72.8516" rx="20.8333" ry="20.8333" style="stroke:#B5E853;stroke-width:1.0416666666666667;" width="491.1458" x="20.8333" y="122.8516"/><text fill="#AA759F" font-family="&quot;Verdana&quot;" font-size="12.5" font-weight="bold" lengthAdjust="spacing" textLength="36.4583" x="41.6667" y="140.7043">push</text><polygon fill="#B5E853" points="351.5625,180.0781,361.9792,184.2448,351.5625,188.4115,355.7292,184.2448" style="stroke:#B5E853;stroke-width:1.0416666666666667;"/><line style="stroke:#B5E853;stroke-width:3.125;" x1="96.3542" x2="357.8125" y1="184.2448" y2="184.2448"/><text fill="#FFFFFF" font-family="&quot;Verdana&quot;" font-size="12.5" font-weight="bold" lengthAdjust="spacing" textLength="8.3333" x="108.8542" y="174.0051">1</text><text fill="#FFFFFF" font-family="&quot;Verdana&quot;" font-size="12.5" lengthAdjust="spacing" textLength="209.375" x="131.7708" y="174.0051">org nodes added to orgzly inbox</text><path d="M368.75,175.944 L368.75,168.6523 A20.8333,20.8333 0 0 0 389.5833,189.4857 L475,189.4857 A20.8333,20.8333 0 0 0 495.8333,168.6523 L495.8333,165.5273 L485.4167,155.1107 L389.5833,155.1107 A20.8333,20.8333 0 0 0 368.75,175.944 " fill="url(#g10nl80l89rbz91)" style="stroke:#6D8B32;stroke-width:1.0416666666666667;"/><path d="M485.4167,155.1107 L485.4167,155.1107 A10.4167,10.4167 0 0 0 495.8333,165.5273 L495.8333,165.5273 L485.4167,155.1107 " fill="url(#g10nl80l89rbz91)" style="stroke:#6D8B32;stroke-width:1.0416666666666667;"/><text fill="#FFFFFF" font-family="&quot;Verdana&quot;" font-size="12.5" lengthAdjust="spacing" textLength="94.7917" x="380.2083" y="177.1301">prevent dupes</text><path d="M409.375,210.2865 L470.8333,210.2865 L470.8333,226.9206 L460.4167,237.3372 L388.5417,237.3372 L388.5417,231.1198 A20.8333,20.8333 0 0 1 409.375,210.2865 " fill="#151515" style="stroke:#EAEAEA;stroke-width:1.0416666666666667;"/><rect fill="none" height="210.2539" rx="20.8333" ry="20.8333" style="stroke:#B5E853;stroke-width:1.0416666666666667;" width="977.0833" x="388.5417" y="210.2865"/><text fill="#AA759F" font-family="&quot;Verdana&quot;" font-size="12.5" font-weight="bold" lengthAdjust="spacing" textLength="25" x="409.375" y="228.1392">put</text><ellipse cx="536.4583" cy="270.8984" fill="none" rx="4.1667" ry="4.1667" style="stroke:#B5E853;stroke-width:1.5625;"/><polygon fill="#B5E853" points="760.9375,267.513,771.3542,271.6797,760.9375,275.8464,765.1042,271.6797" style="stroke:#B5E853;stroke-width:1.0416666666666667;"/><line style="stroke:#B5E853;stroke-width:3.125;" x1="541.1458" x2="767.1875" y1="271.6797" y2="271.6797"/><text fill="#FFFFFF" font-family="&quot;Verdana&quot;" font-size="12.5" font-weight="bold" lengthAdjust="spacing" textLength="8.3333" x="549.4792" y="261.44">2</text><text fill="#FFFFFF" font-family="&quot;Verdana&quot;" font-size="12.5" lengthAdjust="spacing" textLength="156.25" x="572.3958" y="261.44">files downloaded to tmp</text><path d="M788.5417,263.3789 L788.5417,256.0872 A20.8333,20.8333 0 0 0 809.375,276.9206 L904.1667,276.9206 A20.8333,20.8333 0 0 0 925,256.0872 L925,252.9622 L914.5833,242.5456 L809.375,242.5456 A20.8333,20.8333 0 0 0 788.5417,263.3789 " fill="url(#g10nl80l89rbz91)" style="stroke:#6D8B32;stroke-width:1.0416666666666667;"/><path d="M914.5833,242.5456 L914.5833,242.5456 A10.4167,10.4167 0 0 0 925,252.9622 L925,252.9622 L914.5833,242.5456 " fill="url(#g10nl80l89rbz91)" style="stroke:#6D8B32;stroke-width:1.0416666666666667;"/><text fill="#FFFFFF" font-family="&quot;Verdana&quot;" font-size="12.5" lengthAdjust="spacing" textLength="104.1667" x="800" y="264.565">direct download</text><ellipse cx="783.3333" cy="316.6992" fill="none" rx="4.1667" ry="4.1667" style="stroke:#B5E853;stroke-width:1.5625;"/><polygon fill="#B5E853" points="801.0417,313.3138,790.625,317.4805,801.0417,321.6471,796.875,317.4805" style="stroke:#B5E853;stroke-width:1.0416666666666667;"/><ellipse cx="1083.3333" cy="316.6992" fill="none" rx="4.1667" ry="4.1667" style="stroke:#B5E853;stroke-width:1.5625;"/><polygon fill="#B5E853" points="1065.625,313.3138,1076.0417,317.4805,1065.625,321.6471,1069.7917,317.4805" style="stroke:#B5E853;stroke-width:1.0416666666666667;"/><line style="stroke:#B5E853;stroke-width:3.125;stroke-dasharray:2.0,2.0;" x1="798.9583" x2="1071.875" y1="317.4805" y2="317.4805"/><text fill="#FFFFFF" font-family="&quot;Verdana&quot;" font-size="12.5" font-weight="bold" lengthAdjust="spacing" textLength="8.3333" x="806.7708" y="307.2408">3</text><text fill="#FFFFFF" font-family="&quot;Verdana&quot;" font-size="12.5" lengthAdjust="spacing" textLength="241.6667" x="829.6875" y="307.2408">orgzly files compared to dropbox files</text><path d="M640.625,309.1797 L640.625,301.888 A20.8333,20.8333 0 0 0 661.4583,322.7214 L746.875,322.7214 A20.8333,20.8333 0 0 0 767.7083,301.888 L767.7083,298.763 L757.2917,288.3464 L661.4583,288.3464 A20.8333,20.8333 0 0 0 640.625,309.1797 " fill="url(#g10nl80l89rbz91)" style="stroke:#6D8B32;stroke-width:1.0416666666666667;"/><path d="M757.2917,288.3464 L757.2917,288.3464 A10.4167,10.4167 0 0 0 767.7083,298.763 L767.7083,298.763 L757.2917,288.3464 " fill="url(#g10nl80l89rbz91)" style="stroke:#6D8B32;stroke-width:1.0416666666666667;"/><text fill="#FFFFFF" font-family="&quot;Verdana&quot;" font-size="12.5" lengthAdjust="spacing" textLength="94.7917" x="652.0833" y="310.3658">prevent dupes</text><polygon fill="#B5E853" points="1219.7917,359.1146,1230.2083,363.2813,1219.7917,367.4479,1223.9583,363.2813" style="stroke:#B5E853;stroke-width:1.0416666666666667;"/><line style="stroke:#B5E853;stroke-width:3.125;" x1="778.6458" x2="1226.0417" y1="363.2813" y2="363.2813"/><text fill="#FFFFFF" font-family="&quot;Verdana&quot;" font-size="12.5" font-weight="bold" lengthAdjust="spacing" textLength="8.3333" x="791.1458" y="353.0416">4</text><text fill="#FFFFFF" font-family="&quot;Verdana&quot;" font-size="12.5" lengthAdjust="spacing" textLength="145.8333" x="814.0625" y="353.0416">result created in tmp2</text><path d="M1247.9167,354.9805 L1247.9167,347.6888 A20.8333,20.8333 0 0 0 1268.75,368.5221 L1334.375,368.5221 A20.8333,20.8333 0 0 0 1355.2083,347.6888 L1355.2083,344.5638 L1344.7917,334.1471 L1268.75,334.1471 A20.8333,20.8333 0 0 0 1247.9167,354.9805 " fill="url(#g10nl80l89rbz91)" style="stroke:#6D8B32;stroke-width:1.0416666666666667;"/><path d="M1344.7917,334.1471 L1344.7917,334.1471 A10.4167,10.4167 0 0 0 1355.2083,344.5638 L1355.2083,344.5638 L1344.7917,334.1471 " fill="url(#g10nl80l89rbz91)" style="stroke:#6D8B32;stroke-width:1.0416666666666667;"/><text fill="#FFFFFF" font-family="&quot;Verdana&quot;" font-size="12.5" lengthAdjust="spacing" textLength="75" x="1259.375" y="356.1666">only unique</text><line style="stroke:#6A9FB5;stroke-width:2.0833333333333335;" x1="769.2708" x2="788.0208" y1="353.9063" y2="372.6563"/><line style="stroke:#6A9FB5;stroke-width:2.0833333333333335;" x1="769.2708" x2="788.0208" y1="372.6563" y2="353.9063"/><line style="stroke:#B5E853;stroke-width:2.0833333333333335;" x1="544.2708" x2="554.6875" y1="403.8737" y2="414.2904"/><line style="stroke:#B5E853;stroke-width:2.0833333333333335;" x1="544.2708" x2="554.6875" y1="414.2904" y2="403.8737"/><line style="stroke:#B5E853;stroke-width:3.125;" x1="549.4792" x2="1236.4583" y1="409.082" y2="409.082"/><text fill="#FFFFFF" font-family="&quot;Verdana&quot;" font-size="12.5" font-weight="bold" lengthAdjust="spacing" textLength="8.3333" x="559.8958" y="398.8424">5</text><text fill="#FFFFFF" font-family="&quot;Verdana&quot;" font-size="12.5" lengthAdjust="spacing" textLength="173.9583" x="582.8125" y="398.8424">tmp2 uploaded to dropbox</text><path d="M398.9583,400.7813 L398.9583,393.4896 A20.8333,20.8333 0 0 0 419.7917,414.3229 L510.4167,414.3229 A20.8333,20.8333 0 0 0 531.25,393.4896 L531.25,390.3646 L520.8333,379.9479 L419.7917,379.9479 A20.8333,20.8333 0 0 0 398.9583,400.7813 " fill="url(#g10nl80l89rbz91)" style="stroke:#6D8B32;stroke-width:1.0416666666666667;"/><path d="M520.8333,379.9479 L520.8333,379.9479 A10.4167,10.4167 0 0 0 531.25,390.3646 L531.25,390.3646 L520.8333,379.9479 " fill="url(#g10nl80l89rbz91)" style="stroke:#6D8B32;stroke-width:1.0416666666666667;"/><text fill="#FFFFFF" font-family="&quot;Verdana&quot;" font-size="12.5" lengthAdjust="spacing" textLength="100" x="410.4167" y="401.9674">overwrite mode</text><line style="stroke:#6A9FB5;stroke-width:2.0833333333333335;" x1="1228.125" x2="1246.875" y1="399.707" y2="418.457"/><line style="stroke:#6A9FB5;stroke-width:2.0833333333333335;" x1="1228.125" x2="1246.875" y1="418.457" y2="399.707"/><rect fill="#EAEAEA" height="3.125" rx="20.8333" ry="20.8333" style="stroke:#EAEAEA;stroke-width:1.0416666666666667;" width="1547.9167" x="10.4167" y="453.8574"/><line style="stroke:#EAEAEA;stroke-width:1.0416666666666667;" x1="10.4167" x2="1558.3333" y1="453.8574" y2="453.8574"/><line style="stroke:#EAEAEA;stroke-width:1.0416666666666667;" x1="10.4167" x2="1558.3333" y1="456.9824" y2="456.9824"/><rect fill="#EAEAEA" height="33.3008" rx="20.8333" ry="20.8333" style="stroke:#EAEAEA;stroke-width:2.0833333333333335;" width="69.7917" x="749.4792" y="438.2487"/><text fill="#151515" font-family="&quot;Verdana&quot;" font-size="12.5" font-weight="bold" lengthAdjust="spacing" textLength="40.625" x="760.9375" y="459.2265">down</text><path d="M466.1458,489.2578 L527.6042,489.2578 L527.6042,505.8919 L517.1875,516.3086 L445.3125,516.3086 L445.3125,510.0911 A20.8333,20.8333 0 0 1 466.1458,489.2578 " fill="#151515" style="stroke:#EAEAEA;stroke-width:1.0416666666666667;"/><rect fill="none" height="164.4531" rx="20.8333" ry="20.8333" style="stroke:#B5E853;stroke-width:1.0416666666666667;" width="736.4583" x="445.3125" y="489.2578"/><text fill="#AA759F" font-family="&quot;Verdana&quot;" font-size="12.5" font-weight="bold" lengthAdjust="spacing" textLength="25" x="466.1458" y="507.1106">get</text><polygon fill="#B5E853" points="760.9375,546.4844,771.3542,550.651,760.9375,554.8177,765.1042,550.651" style="stroke:#B5E853;stroke-width:1.0416666666666667;"/><line style="stroke:#B5E853;stroke-width:3.125;" x1="536.9792" x2="767.1875" y1="550.651" y2="550.651"/><text fill="#FFFFFF" font-family="&quot;Verdana&quot;" font-size="12.5" font-weight="bold" lengthAdjust="spacing" textLength="8.3333" x="549.4792" y="540.4114">6</text><text fill="#FFFFFF" font-family="&quot;Verdana&quot;" font-size="12.5" lengthAdjust="spacing" textLength="183.3333" x="572.3958" y="540.4114">dropbox downloaded to tmp</text><path d="M788.5417,542.3503 L788.5417,535.0586 A20.8333,20.8333 0 0 0 809.375,555.8919 L904.1667,555.8919 A20.8333,20.8333 0 0 0 925,535.0586 L925,531.9336 L914.5833,521.5169 L809.375,521.5169 A20.8333,20.8333 0 0 0 788.5417,542.3503 " fill="url(#g10nl80l89rbz91)" style="stroke:#6D8B32;stroke-width:1.0416666666666667;"/><path d="M914.5833,521.5169 L914.5833,521.5169 A10.4167,10.4167 0 0 0 925,531.9336 L925,531.9336 L914.5833,521.5169 " fill="url(#g10nl80l89rbz91)" style="stroke:#6D8B32;stroke-width:1.0416666666666667;"/><text fill="#FFFFFF" font-family="&quot;Verdana&quot;" font-size="12.5" lengthAdjust="spacing" textLength="104.1667" x="800" y="543.5364">direct download</text><ellipse cx="783.3333" cy="595.6706" fill="none" rx="4.1667" ry="4.1667" style="stroke:#B5E853;stroke-width:1.5625;"/><polygon fill="#B5E853" points="801.0417,592.2852,790.625,596.4518,801.0417,600.6185,796.875,596.4518" style="stroke:#B5E853;stroke-width:1.0416666666666667;"/><ellipse cx="1083.3333" cy="595.6706" fill="none" rx="4.1667" ry="4.1667" style="stroke:#B5E853;stroke-width:1.5625;"/><polygon fill="#B5E853" points="1065.625,592.2852,1076.0417,596.4518,1065.625,600.6185,1069.7917,596.4518" style="stroke:#B5E853;stroke-width:1.0416666666666667;"/><line style="stroke:#B5E853;stroke-width:3.125;stroke-dasharray:2.0,2.0;" x1="798.9583" x2="1071.875" y1="596.4518" y2="596.4518"/><text fill="#FFFFFF" font-family="&quot;Verdana&quot;" font-size="12.5" font-weight="bold" lengthAdjust="spacing" textLength="8.3333" x="806.7708" y="586.2122">7</text><text fill="#FFFFFF" font-family="&quot;Verdana&quot;" font-size="12.5" lengthAdjust="spacing" textLength="183.3333" x="829.6875" y="586.2122">orgzly files compared to tmp</text><path d="M640.625,588.151 L640.625,580.8594 A20.8333,20.8333 0 0 0 661.4583,601.6927 L746.875,601.6927 A20.8333,20.8333 0 0 0 767.7083,580.8594 L767.7083,577.7344 L757.2917,567.3177 L661.4583,567.3177 A20.8333,20.8333 0 0 0 640.625,588.151 " fill="url(#g10nl80l89rbz91)" style="stroke:#6D8B32;stroke-width:1.0416666666666667;"/><path d="M757.2917,567.3177 L757.2917,567.3177 A10.4167,10.4167 0 0 0 767.7083,577.7344 L767.7083,577.7344 L757.2917,567.3177 " fill="url(#g10nl80l89rbz91)" style="stroke:#6D8B32;stroke-width:1.0416666666666667;"/><text fill="#FFFFFF" font-family="&quot;Verdana&quot;" font-size="12.5" lengthAdjust="spacing" textLength="94.7917" x="652.0833" y="589.3372">prevent dupes</text><polygon fill="#B5E853" points="1071.3542,638.0859,1081.7708,642.2526,1071.3542,646.4193,1075.5208,642.2526" style="stroke:#B5E853;stroke-width:1.0416666666666667;"/><line style="stroke:#B5E853;stroke-width:3.125;" x1="778.6458" x2="1077.6042" y1="642.2526" y2="642.2526"/><text fill="#FFFFFF" font-family="&quot;Verdana&quot;" font-size="12.5" font-weight="bold" lengthAdjust="spacing" textLength="8.3333" x="791.1458" y="632.0129">8</text><text fill="#FFFFFF" font-family="&quot;Verdana&quot;" font-size="12.5" lengthAdjust="spacing" textLength="141.6667" x="814.0625" y="632.0129">result added to orgzly</text><path d="M1088.5417,633.9518 L1088.5417,626.6602 A20.8333,20.8333 0 0 0 1109.375,647.4935 L1144.7917,647.4935 A20.8333,20.8333 0 0 0 1165.625,626.6602 L1165.625,623.5352 L1155.2083,613.1185 L1109.375,613.1185 A20.8333,20.8333 0 0 0 1088.5417,633.9518 " fill="url(#g10nl80l89rbz91)" style="stroke:#6D8B32;stroke-width:1.0416666666666667;"/><path d="M1155.2083,613.1185 L1155.2083,613.1185 A10.4167,10.4167 0 0 0 1165.625,623.5352 L1165.625,623.5352 L1155.2083,613.1185 " fill="url(#g10nl80l89rbz91)" style="stroke:#6D8B32;stroke-width:1.0416666666666667;"/><text fill="#FFFFFF" font-family="&quot;Verdana&quot;" font-size="12.5" lengthAdjust="spacing" textLength="44.7917" x="1100" y="635.1379">unique</text><line style="stroke:#6A9FB5;stroke-width:2.0833333333333335;" x1="769.2708" x2="788.0208" y1="632.8776" y2="651.6276"/><line style="stroke:#6A9FB5;stroke-width:2.0833333333333335;" x1="769.2708" x2="788.0208" y1="651.6276" y2="632.8776"/><path d="M1021.875,668.2943 L1085.4167,668.2943 L1085.4167,684.9284 L1075,695.3451 L1001.0417,695.3451 L1001.0417,689.1276 A20.8333,20.8333 0 0 1 1021.875,668.2943 " fill="#151515" style="stroke:#EAEAEA;stroke-width:1.0416666666666667;"/><rect fill="none" height="72.8516" rx="20.8333" ry="20.8333" style="stroke:#B5E853;stroke-width:1.0416666666666667;" width="546.875" x="1001.0417" y="668.2943"/><text fill="#AA759F" font-family="&quot;Verdana&quot;" font-size="12.5" font-weight="bold" lengthAdjust="spacing" textLength="27.0833" x="1021.875" y="686.1471">pull</text><line style="stroke:#B5E853;stroke-width:2.0833333333333335;" x1="1381.25" x2="1391.6667" y1="724.4792" y2="734.8958"/><line style="stroke:#B5E853;stroke-width:2.0833333333333335;" x1="1381.25" x2="1391.6667" y1="734.8958" y2="724.4792"/><line style="stroke:#B5E853;stroke-width:3.125;" x1="1083.8542" x2="1386.4583" y1="729.6875" y2="729.6875"/><text fill="#FFFFFF" font-family="&quot;Verdana&quot;" font-size="12.5" font-weight="bold" lengthAdjust="spacing" textLength="8.3333" x="1096.3542" y="719.4478">9</text><text fill="#FFFFFF" font-family="&quot;Verdana&quot;" font-size="12.5" lengthAdjust="spacing" textLength="163.5417" x="1119.2708" y="719.4478">orgzly files pushed to org</text><path d="M1405.2083,721.3867 L1405.2083,714.0951 A20.8333,20.8333 0 0 0 1426.0417,734.9284 L1511.4583,734.9284 A20.8333,20.8333 0 0 0 1532.2917,714.0951 L1532.2917,710.9701 L1521.875,700.5534 L1426.0417,700.5534 A20.8333,20.8333 0 0 0 1405.2083,721.3867 " fill="url(#g10nl80l89rbz91)" style="stroke:#6D8B32;stroke-width:1.0416666666666667;"/><path d="M1521.875,700.5534 L1521.875,700.5534 A10.4167,10.4167 0 0 0 1532.2917,710.9701 L1532.2917,710.9701 L1521.875,700.5534 " fill="url(#g10nl80l89rbz91)" style="stroke:#6D8B32;stroke-width:1.0416666666666667;"/><text fill="#FFFFFF" font-family="&quot;Verdana&quot;" font-size="12.5" lengthAdjust="spacing" textLength="94.7917" x="1416.6667" y="722.5728">prevent dupes</text><!--MD5=[c6a6d8a66f38f75bdc4f3b9df72ed337]
@startuml
!theme hacker
autonumber

== up ==
group push
	org -> oz_inbox : org nodes added to orgzly inbox
	note right: prevent dupes
end
group put
	Dropbox o-> tmp : files downloaded to tmp
	note right: direct download
	activate tmp
	orgzly o<- ->o tmp : orgzly files compared to dropbox files
	note left: prevent dupes
	activate tmp2
	tmp -> tmp2 : result created in tmp2
	note right: only unique
	destroy tmp
	tmp2 ->x Dropbox : tmp2 uploaded to dropbox
	note left: overwrite mode
	destroy tmp2
end

== down ==
group get
	tmp <- Dropbox : dropbox downloaded to tmp
	note right: direct download
	activate tmp
	orgzly o<- ->o tmp : orgzly files compared to tmp
	note left: prevent dupes
	tmp -> orgzly : result added to orgzly
	note right: unique
	destroy tmp
end
group pull
	or_inbox x<- orgzly : orgzly files pushed to org
	note right: prevent dupes
end
@enduml

@startuml



skinparam BackgroundColor transparent
skinparam useBetaStyle false






<style>
  root {
    BackgroundColor transparent
    FontColor #151515
    HyperLinkColor $ORANGE
    LineColor #6d8b32
    LineThickness 1
    Margin 10
    Padding 6
    Shadowing 0.0
  }
  node {
   Padding 15
   roundcorner 20
   BackgroundColor #b5e853-#6d8b32
  }
  caption {
    LineThickness 0
  }
  footer {
    LineThickness 0
  }
  groupHeader {
    BackgroundColor #6a9fb5
    FontColor #aa759f
    FontStyle bold
  }
  header {
    LineThickness 0
  }
  referenceHeader {
    BackgroundColor transparent
    FontColor #eaeaea
    FontStyle bold
  }
  separator {
    BackgroundColor $FGCOLOR
    FontColor transparent
    FontStyle bold
  }
  title {
	FontSize 20
	BorderRoundCorner            8
	BorderThickness 	         1
	BackgroundColor  #88b2c4-#6a9fb5
	FontColor #b5e853
	BorderColor #6a9fb5
  }
  nwdiagDiagram {
	network {
			FontColor #151515
	BorderColor #d3f198
	BackgroundColor #d3f198-#b5e853    
		LineColor #b5e853
		LineThickness 1.0
		FontColor #d3f198
	}
	server {
			FontColor #151515
	BorderColor #d3f198
	BackgroundColor #d3f198-#b5e853
	}
	arrow {
		FontColor #d3f198
		LineColor #d3f198
	}
	group {
		BackGroundColor #151515
		LineColor $LIGHT_DARK
		LineThickness 2.0
		Margin 5
		Padding 5
	}
  }
  ganttDiagram {
	task {
			FontColor #151515
	BorderColor #d3f198
	BackgroundColor #d3f198-#b5e853
		LineColor #b5e853
		Margin 10
		Padding 6
	}
	note {
		FontColor $INFO_TEXT
		LineColor #885E7F
		BackGroundColor #aa759f
	}
	separator {
		LineColor #6a9fb5
		BackGroundColor #6a9fb5-#557f91
		FontColor #fefefe
	}
	milestone {
		FontColor #aa759f
		FontSize 16
		FontStyle italic
		BackGroundColor #6a9fb5
		LineColor #557f91
	}
	timeline {
		BackgroundColor #6a9fb5
		FontColor #fefefe
	}
	closed {
		BackgroundColor $WARNING_DARK
		FontColor #151515
	}
  }
</style>
skinparam defaultFontName       "Verdana"
skinparam defaultFontSize       12
skinparam dpi                   100
skinparam shadowing             false
skinparam roundcorner           40
skinparam ParticipantPadding    40
skinparam BoxPadding            40
skinparam Padding               5
skinparam ArrowColor            #eaeaea
skinparam stereotype {
    CBackgroundColor #557f91
    CBorderColor #88b2c4
    ABackgroundColor #a6ba7a
    ABorderColor $SUCCESS_DARK
    IBackgroundColor #bd6768
    IBorderColor $DANGER_DARK
    EBackgroundColor #f6cc91
    EBorderColor $WARNING_DARK
    NBackgroundColor #bb91b2
    NBorderColor #885E7F
}
skinparam title {
	FontColor	                 #b5e853
	BorderColor	                 #b5e853
	FontSize	    	         20
	BorderRoundCorner            8
	BorderThickness 	         1
	BackgroundColor              #151515-black
}


skinparam legend {
	BackgroundColor #6a9fb5
	BorderColor #557f91
	FontColor #eaeaea
}

skinparam swimlane {
	BorderColor #aa759f
	BorderThickness 2
	TitleBackgroundColor  #88b2c4-#6a9fb5
	TitleFontColor #b5e853
}


skinparam activity {
		FontColor #151515
	BorderColor #d3f198
	BackgroundColor #d3f198-#b5e853
	BarColor #90a959
	StartColor #aa759f
	EndColor #aa759f
	DiamondBackgroundColor #88b2c4-#6a9fb5
  	DiamondBorderColor #88b2c4
  	DiamondFontColor #fefefe
}


skinparam participant {
		FontColor #151515
	BorderColor #d3f198
	BackgroundColor #d3f198-#b5e853
	BorderThickness 2
}


skinparam actor {
		FontColor #151515
	BorderColor #d3f198
	BackgroundColor #d3f198-#b5e853
	FontColor #eaeaea
}


skinparam arrow {
	Thickness 3
	Color #b5e853
	FontColor $FGCOLOR
}


skinparam sequence {
	BorderColor #b5e853
	TitleFontColor #b5e853
	BackgroundColor transparent
	StartColor #b5e853
	EndColor #b5e853
	BoxBackgroundColor transparent
	BoxBorderColor #eaeaea
	BoxFontColor #eaeaea
	DelayFontColor #eaeaea
	LifeLineBorderColor #6a9fb5
	LifeLineBorderThickness 2
	LifeLineBackgroundColor #557f91
	GroupBackgroundColor #151515
	GroupBorderColor #eaeaea
	GroupFontColor #eaeaea
	GroupHeaderFontColor #aa759f
	GroupHeaderBackgroundColor transparent
	DividerBackgroundColor #eaeaea
    DividerBorderColor #eaeaea
    DividerBorderThickness 2
    DividerFontColor #151515
	ReferenceBackgroundColor transparent
	ReferenceBorderColor #eaeaea
	ReferenceFontColor #eaeaea
	ReferenceHeaderBackgroundColor #151515
	StereotypeFontColor #151515
}


skinparam partition {
	BorderColor #b5e853
	FontColor #b5e853
	BackgroundColor #151515-black
}


skinparam collections {
		FontColor #151515
	BorderColor #d3f198
	BackgroundColor #d3f198-#b5e853
}


skinparam control {
		FontColor #151515
	BorderColor #d3f198
	BackgroundColor #d3f198-#b5e853
	FontColor #eaeaea
}


skinparam entity {
		FontColor #151515
	BorderColor #d3f198
	BackgroundColor #d3f198-#b5e853
	FontColor #eaeaea
}


skinparam boundary {
		FontColor #151515
	BorderColor #d3f198
	BackgroundColor #d3f198-#b5e853
	FontColor #eaeaea
}


skinparam agent {
	BackgroundColor #f6cc91-#f4bf75
	BorderColor #f6cc91
	FontColor #eaeaea
}


skinparam note {
	BorderThickness 1
	BackgroundColor #bb91b2-#885E7F
	BorderColor #885E7F
	FontColor $WHITE
}


skinparam artifact {
	BackgroundColor #eaeaea
	BorderColor white
	FontColor #151515
}


skinparam component {
		FontColor #151515
	BorderColor #d3f198
	BackgroundColor #d3f198-#b5e853
}


skinparam interface {
	BackgroundColor  #bd6768-#ac4142
	BorderColor  #bd6768
	FontColor #eaeaea
}


skinparam storage {
	BackgroundColor #f6cc91-#f4bf75
  	BorderColor #f6cc91
	FontColor #151515
}


skinparam node {
	BackgroundColor  #151515-black
	BorderColor #d3f198
	FontColor #eaeaea
}


skinparam cloud {
	BackgroundColor transparent
	BorderColor #eaeaea
	FontColor #eaeaea
}


skinparam database {
	BackgroundColor  #151515-black
	BorderColor #d3f198
	FontColor #eaeaea
}


skinparam class {
		FontColor #151515
	BorderColor #d3f198
	BackgroundColor #d3f198-#b5e853
	HeaderBackgroundColor #d3f198-#b5e853
	StereotypeFontColor #eaeaea
	BorderThickness 1
	AttributeFontColor #151515
	AttributeFontSize 11
}


skinparam object {
		FontColor #151515
	BorderColor #d3f198
	BackgroundColor #d3f198-#b5e853
	StereotypeFontColor #eaeaea
	BorderThickness 1
	AttributeFontColor #151515
	AttributeFontSize 11
}


skinparam usecase {
		FontColor #151515
	BorderColor #d3f198
	BackgroundColor #d3f198-#b5e853
	BorderThickness 2
	StereotypeFontColor #b5e853
}


skinparam rectangle {
	BackgroundColor transparent
	BorderColor #b5e853
	BorderThickness 2
	FontColor #6d8b32
	StereotypeFontColor #b5e853
}


skinparam package {
	BackgroundColor #151515
  	BorderColor #b5e853
	FontColor #b5e853
	BorderThickness 2
}


skinparam folder {
	BackgroundColor #151515-black
  	BorderColor #f4bf75
	FontColor #f4bf75
	BorderThickness 2
}


skinparam frame {
	BackgroundColor #151515-black
  	BorderColor #aa759f
	FontColor #aa759f
	BorderThickness 2
}


skinparam state {
		FontColor #151515
	BorderColor #d3f198
	BackgroundColor #d3f198-#b5e853
	StartColor #aa759f
	EndColor #aa759f
	AttributeFontColor #fefefe
	AttributeFontSize 11
}


skinparam queue {
		FontColor #151515
	BorderColor #d3f198
	BackgroundColor #d3f198-#b5e853
}


skinparam card {
	BackgroundColor #bb91b2-#aa759f
	BorderColor #bb91b2
	FontColor $INFO_TEXT
}


skinparam file {
	BackgroundColor #88b2c4-#6a9fb5
	BorderColor #88b2c4
	FontColor #eaeaea
}


skinparam stack {
		FontColor #151515
	BorderColor #d3f198
	BackgroundColor #d3f198-#b5e853
}

<style>
mindmapDiagram, wbsDiagram {
    element {
	    	FontColor #151515
	BorderColor #d3f198
	BackgroundColor #d3f198-#b5e853
	}
	:depth(0) {
        fontSize 16
        fontStyle bold
        fontColor #6a9fb5
    }
    :depth(1) {
        fontSize 14
        padding 5
        fontStyle bold
    }
    :depth(2) {
        fontSize 12
        padding 4
    }
    :depth(3) {
        fontSize 11
        padding 3
        fontColor #aa759f
    }

}
</style>


autonumber

== up ==
group push
	org -> oz_inbox : org nodes added to orgzly inbox
	note right: prevent dupes
end
group put
	Dropbox o-> tmp : files downloaded to tmp
	note right: direct download
	activate tmp
	orgzly o<- ->o tmp : orgzly files compared to dropbox files
	note left: prevent dupes
	activate tmp2
	tmp -> tmp2 : result created in tmp2
	note right: only unique
	destroy tmp
	tmp2 ->x Dropbox : tmp2 uploaded to dropbox
	note left: overwrite mode
	destroy tmp2
end

== down ==
group get
	tmp <- Dropbox : dropbox downloaded to tmp
	note right: direct download
	activate tmp
	orgzly o<- ->o tmp : orgzly files compared to tmp
	note left: prevent dupes
	tmp -> orgzly : result added to orgzly
	note right: unique
	destroy tmp
end
group pull
	or_inbox x<- orgzly : orgzly files pushed to org
	note right: prevent dupes
end
@enduml

PlantUML version 1.2022.12(Sun Oct 23 14:12:26 EDT 2022)
(GPL source distribution)
Java Runtime: OpenJDK Runtime Environment
JVM: OpenJDK 64-Bit Server VM
Default Encoding: UTF-8
Language: en
Country: US
--></g></svg>